<svg width="19" height="19" viewBox="0 0 19 19" fill="none" xmlns="http://www.w3.org/2000/svg">
<path d="M9.5 0C4.15625 0 0 4.15625 0 9.5C0 15.7344 5.64062 18.4062 6.53125 18.4062C7.125 18.4062 7.125 18.1094 7.125 17.8125V16.3281C5.04688 16.9219 4.15625 15.7344 3.85938 14.8438C3.85938 14.8438 3.85938 14.5469 3.26562 13.9531C2.96875 13.6562 1.78125 13.0625 2.96875 13.0625C3.85938 13.0625 4.45312 14.25 4.45312 14.25C5.34375 15.4375 6.53125 15.1406 7.125 14.8438C7.125 14.25 7.71875 13.6562 7.71875 13.6562C5.34375 13.3594 3.5625 12.4688 3.5625 9.20312C3.5625 8.01562 3.85938 7.125 4.45312 6.53125C4.45312 6.53125 3.85938 5.34375 4.45312 3.85938C4.45312 3.85938 5.9375 3.85938 7.125 5.04688C8.01562 4.45312 10.9844 4.45312 11.875 5.04688C13.0625 3.85938 14.5469 3.85938 14.5469 3.85938C15.1406 5.9375 14.5469 6.53125 14.5469 6.53125C15.1406 7.125 15.4375 8.01562 15.4375 9.20312C15.4375 12.4688 13.3594 13.3594 11.2812 13.6562C11.5781 13.9531 11.875 14.5469 11.875 15.4375V17.8125C11.875 18.1094 11.875 18.4062 12.4688 18.4062C13.3594 18.4062 19 15.7344 19 9.5C19 4.15625 14.8438 0 9.5 0Z" fill="black"/>
</svg>
